<mxfile host="app.diagrams.net" agent="Mozilla/5.0 (Windows NT 10.0; Win64; x64) AppleWebKit/537.36 (KHTML, like Gecko) Chrome/135.0.0.0 Safari/537.36" version="26.2.14">
  <diagram name="Page-1" id="O6QosacPmmfcPiuAElP6">
    <mxGraphModel dx="983" dy="522" grid="1" gridSize="10" guides="1" tooltips="1" connect="1" arrows="1" fold="1" page="1" pageScale="1" pageWidth="1169" pageHeight="827" math="0" shadow="0">
      <root>
        <mxCell id="0" />
        <mxCell id="1" parent="0" />
        <mxCell id="5KhHPp6qHfNSPZu-pBKK-1" value="&lt;font style=&quot;font-size: 20px;&quot;&gt;&lt;b&gt;State Machine Diagram &lt;br&gt;Line Follower&amp;nbsp;&lt;/b&gt;&lt;/font&gt;" style="text;html=1;align=center;verticalAlign=middle;whiteSpace=wrap;rounded=0;" parent="1" vertex="1">
          <mxGeometry x="10" y="10" width="320" height="60" as="geometry" />
        </mxCell>
        <mxCell id="5KhHPp6qHfNSPZu-pBKK-7" style="edgeStyle=orthogonalEdgeStyle;rounded=0;orthogonalLoop=1;jettySize=auto;html=1;entryX=1;entryY=0.5;entryDx=0;entryDy=0;" parent="1" source="5KhHPp6qHfNSPZu-pBKK-2" target="5KhHPp6qHfNSPZu-pBKK-4" edge="1">
          <mxGeometry relative="1" as="geometry" />
        </mxCell>
        <mxCell id="5KhHPp6qHfNSPZu-pBKK-8" value="&lt;span style=&quot;font-size: 12px;&quot;&gt;Jumate de senzori vad dreapta&amp;nbsp;&lt;/span&gt;" style="edgeLabel;html=1;align=center;verticalAlign=middle;resizable=0;points=[];" parent="5KhHPp6qHfNSPZu-pBKK-7" vertex="1" connectable="0">
          <mxGeometry x="-0.1882" y="-2" relative="1" as="geometry">
            <mxPoint as="offset" />
          </mxGeometry>
        </mxCell>
        <mxCell id="5KhHPp6qHfNSPZu-pBKK-2" value="&lt;font style=&quot;font-size: 22px;&quot;&gt;&lt;b style=&quot;&quot;&gt;Urmareste Linia&lt;/b&gt;&lt;/font&gt;" style="ellipse;whiteSpace=wrap;html=1;aspect=fixed;fontFamily=Times New Roman;" parent="1" vertex="1">
          <mxGeometry x="500" y="130" width="170" height="170" as="geometry" />
        </mxCell>
        <mxCell id="5KhHPp6qHfNSPZu-pBKK-4" value="&lt;span style=&quot;font-size: 14px;&quot;&gt;Scara&amp;nbsp;&lt;/span&gt;&lt;div&gt;&lt;span style=&quot;font-size: 14px;&quot;&gt;dreapta&lt;/span&gt;&lt;/div&gt;" style="ellipse;whiteSpace=wrap;html=1;aspect=fixed;" parent="1" vertex="1">
          <mxGeometry x="160" y="165" width="100" height="100" as="geometry" />
        </mxCell>
        <mxCell id="5KhHPp6qHfNSPZu-pBKK-15" value="&lt;span style=&quot;font-size: 14px;&quot;&gt;Scara&amp;nbsp;&lt;/span&gt;&lt;div&gt;&lt;span style=&quot;font-size: 14px;&quot;&gt;stanga&lt;/span&gt;&lt;/div&gt;" style="ellipse;whiteSpace=wrap;html=1;aspect=fixed;" parent="1" vertex="1">
          <mxGeometry x="210" y="350" width="100" height="100" as="geometry" />
        </mxCell>
        <mxCell id="5KhHPp6qHfNSPZu-pBKK-16" value="" style="endArrow=classic;html=1;rounded=0;entryX=1;entryY=0.4;entryDx=0;entryDy=0;entryPerimeter=0;exitX=0.035;exitY=0.729;exitDx=0;exitDy=0;exitPerimeter=0;" parent="1" source="5KhHPp6qHfNSPZu-pBKK-2" target="5KhHPp6qHfNSPZu-pBKK-15" edge="1">
          <mxGeometry relative="1" as="geometry">
            <mxPoint x="330" y="360" as="sourcePoint" />
            <mxPoint x="610" y="360" as="targetPoint" />
          </mxGeometry>
        </mxCell>
        <mxCell id="5KhHPp6qHfNSPZu-pBKK-18" value="&lt;span style=&quot;font-size: 12px;&quot;&gt;Jumate de senzori&amp;nbsp;&lt;/span&gt;&lt;div&gt;&lt;span style=&quot;font-size: 12px;&quot;&gt;vad stanga&lt;/span&gt;&lt;/div&gt;" style="edgeLabel;html=1;align=center;verticalAlign=middle;resizable=0;points=[];fontFamily=Helvetica;" parent="5KhHPp6qHfNSPZu-pBKK-16" vertex="1" connectable="0">
          <mxGeometry x="-0.0218" y="1" relative="1" as="geometry">
            <mxPoint x="-20" y="19" as="offset" />
          </mxGeometry>
        </mxCell>
        <mxCell id="5KhHPp6qHfNSPZu-pBKK-19" value="" style="curved=1;endArrow=classic;html=1;rounded=0;entryX=0.018;entryY=0.635;entryDx=0;entryDy=0;exitX=0.59;exitY=1;exitDx=0;exitDy=0;exitPerimeter=0;entryPerimeter=0;" parent="1" source="5KhHPp6qHfNSPZu-pBKK-4" target="5KhHPp6qHfNSPZu-pBKK-2" edge="1">
          <mxGeometry width="50" height="50" relative="1" as="geometry">
            <mxPoint x="330" y="420" as="sourcePoint" />
            <mxPoint x="380" y="370" as="targetPoint" />
            <Array as="points">
              <mxPoint x="280" y="290" />
              <mxPoint x="340" y="290" />
              <mxPoint x="400" y="280" />
            </Array>
          </mxGeometry>
        </mxCell>
        <mxCell id="5KhHPp6qHfNSPZu-pBKK-26" value="&lt;font style=&quot;font-size: 12px;&quot;&gt;Sunt la mijlocul&amp;nbsp;&lt;/font&gt;&lt;div&gt;&lt;font style=&quot;font-size: 12px;&quot;&gt;liniei&lt;/font&gt;&lt;/div&gt;" style="edgeLabel;html=1;align=center;verticalAlign=middle;resizable=0;points=[];" parent="5KhHPp6qHfNSPZu-pBKK-19" vertex="1" connectable="0">
          <mxGeometry x="0.4002" y="1" relative="1" as="geometry">
            <mxPoint x="-70" y="9" as="offset" />
          </mxGeometry>
        </mxCell>
        <mxCell id="5KhHPp6qHfNSPZu-pBKK-20" value="" style="endArrow=classic;html=1;rounded=0;" parent="1" edge="1">
          <mxGeometry relative="1" as="geometry">
            <mxPoint x="670" y="214.5" as="sourcePoint" />
            <mxPoint x="860" y="215" as="targetPoint" />
          </mxGeometry>
        </mxCell>
        <mxCell id="5KhHPp6qHfNSPZu-pBKK-36" value="&lt;span style=&quot;font-size: 12px;&quot;&gt;6 Senzori nu vad&amp;nbsp;&lt;/span&gt;&lt;div&gt;&lt;span style=&quot;font-size: 12px;&quot;&gt;&amp;amp; vad perete&lt;br&gt;&lt;/span&gt;&lt;div&gt;&lt;span style=&quot;font-size: 12px;&quot;&gt;&lt;br&gt;&lt;/span&gt;&lt;/div&gt;&lt;/div&gt;" style="edgeLabel;html=1;align=center;verticalAlign=middle;resizable=0;points=[];" parent="5KhHPp6qHfNSPZu-pBKK-20" vertex="1" connectable="0">
          <mxGeometry x="-0.1895" y="3" relative="1" as="geometry">
            <mxPoint x="3" y="3" as="offset" />
          </mxGeometry>
        </mxCell>
        <mxCell id="5KhHPp6qHfNSPZu-pBKK-32" value="" style="curved=1;endArrow=classic;html=1;rounded=0;exitX=0.5;exitY=1;exitDx=0;exitDy=0;entryX=0;entryY=0;entryDx=0;entryDy=0;" parent="1" source="5KhHPp6qHfNSPZu-pBKK-15" target="5KhHPp6qHfNSPZu-pBKK-15" edge="1">
          <mxGeometry width="50" height="50" relative="1" as="geometry">
            <mxPoint x="145" y="439" as="sourcePoint" />
            <mxPoint x="195" y="389" as="targetPoint" />
            <Array as="points">
              <mxPoint x="220" y="470" />
              <mxPoint x="150" y="440" />
              <mxPoint x="130" y="386" />
              <mxPoint x="170" y="340" />
            </Array>
          </mxGeometry>
        </mxCell>
        <mxCell id="5KhHPp6qHfNSPZu-pBKK-33" value="" style="curved=1;endArrow=classic;html=1;rounded=0;exitX=0.2;exitY=0.95;exitDx=0;exitDy=0;entryX=0.17;entryY=0.08;entryDx=0;entryDy=0;exitPerimeter=0;entryPerimeter=0;" parent="1" source="5KhHPp6qHfNSPZu-pBKK-4" target="5KhHPp6qHfNSPZu-pBKK-4" edge="1">
          <mxGeometry width="50" height="50" relative="1" as="geometry">
            <mxPoint x="200" y="268.75" as="sourcePoint" />
            <mxPoint x="165" y="183.75" as="targetPoint" />
            <Array as="points">
              <mxPoint x="160" y="288.75" />
              <mxPoint x="90" y="258.75" />
              <mxPoint x="70" y="204.75" />
              <mxPoint x="110" y="158.75" />
            </Array>
          </mxGeometry>
        </mxCell>
        <mxCell id="5KhHPp6qHfNSPZu-pBKK-34" value="" style="endArrow=oval;html=1;rounded=0;exitX=0.5;exitY=0;exitDx=0;exitDy=0;startArrow=none;startFill=0;endFill=1;" parent="1" source="5KhHPp6qHfNSPZu-pBKK-15" edge="1">
          <mxGeometry width="50" height="50" relative="1" as="geometry">
            <mxPoint x="540" y="380" as="sourcePoint" />
            <mxPoint x="300" y="290" as="targetPoint" />
          </mxGeometry>
        </mxCell>
        <mxCell id="5KhHPp6qHfNSPZu-pBKK-37" value="&lt;font style=&quot;font-size: 13px;&quot;&gt;&lt;b&gt;Urmareste Perete&lt;/b&gt;&lt;/font&gt;" style="ellipse;whiteSpace=wrap;html=1;aspect=fixed;" parent="1" vertex="1">
          <mxGeometry x="860" y="158.75" width="112.5" height="112.5" as="geometry" />
        </mxCell>
        <mxCell id="5KhHPp6qHfNSPZu-pBKK-38" value="" style="curved=1;endArrow=classic;html=1;rounded=0;entryX=0.5;entryY=0;entryDx=0;entryDy=0;" parent="1" target="5KhHPp6qHfNSPZu-pBKK-37" edge="1">
          <mxGeometry width="50" height="50" relative="1" as="geometry">
            <mxPoint x="972.5" y="208.75" as="sourcePoint" />
            <mxPoint x="1022.5" y="158.75" as="targetPoint" />
            <Array as="points">
              <mxPoint x="1010" y="200" />
              <mxPoint x="980" y="130" />
            </Array>
          </mxGeometry>
        </mxCell>
        <mxCell id="5KhHPp6qHfNSPZu-pBKK-39" value="" style="curved=1;endArrow=classic;html=1;rounded=0;exitX=0;exitY=0;exitDx=0;exitDy=0;entryX=0.5;entryY=0;entryDx=0;entryDy=0;" parent="1" source="5KhHPp6qHfNSPZu-pBKK-37" target="5KhHPp6qHfNSPZu-pBKK-2" edge="1">
          <mxGeometry width="50" height="50" relative="1" as="geometry">
            <mxPoint x="540" y="380" as="sourcePoint" />
            <mxPoint x="590" y="330" as="targetPoint" />
            <Array as="points">
              <mxPoint x="790" y="130" />
              <mxPoint x="670" y="120" />
            </Array>
          </mxGeometry>
        </mxCell>
        <mxCell id="5KhHPp6qHfNSPZu-pBKK-40" value="&lt;font style=&quot;font-size: 12px;&quot;&gt;Vad Linia&lt;/font&gt;" style="edgeLabel;html=1;align=center;verticalAlign=middle;resizable=0;points=[];" parent="5KhHPp6qHfNSPZu-pBKK-39" vertex="1" connectable="0">
          <mxGeometry x="-0.1202" y="2" relative="1" as="geometry">
            <mxPoint as="offset" />
          </mxGeometry>
        </mxCell>
        <mxCell id="5KhHPp6qHfNSPZu-pBKK-41" value="&lt;span style=&quot;font-size: 14px;&quot;&gt;Linie Intrerupta&lt;/span&gt;" style="ellipse;whiteSpace=wrap;html=1;aspect=fixed;" parent="1" vertex="1">
          <mxGeometry x="851.25" y="330" width="130" height="130" as="geometry" />
        </mxCell>
        <mxCell id="5KhHPp6qHfNSPZu-pBKK-43" value="" style="endArrow=classic;html=1;rounded=0;entryX=0;entryY=0;entryDx=0;entryDy=0;exitX=1;exitY=1;exitDx=0;exitDy=0;" parent="1" source="5KhHPp6qHfNSPZu-pBKK-2" target="5KhHPp6qHfNSPZu-pBKK-41" edge="1">
          <mxGeometry relative="1" as="geometry">
            <mxPoint x="530" y="360" as="sourcePoint" />
            <mxPoint x="630" y="360" as="targetPoint" />
          </mxGeometry>
        </mxCell>
        <mxCell id="5KhHPp6qHfNSPZu-pBKK-46" value="&lt;span style=&quot;font-size: 12px;&quot;&gt;6 Senzori nu vad&amp;nbsp;&lt;/span&gt;&lt;div&gt;&lt;span style=&quot;font-size: 12px;&quot;&gt;&amp;amp; vad cei externi&lt;br&gt;&lt;/span&gt;&lt;div&gt;&lt;span style=&quot;font-size: 12px;&quot;&gt;&lt;br&gt;&lt;/span&gt;&lt;/div&gt;&lt;/div&gt;" style="edgeLabel;html=1;align=center;verticalAlign=middle;resizable=0;points=[];rotation=15;" parent="1" vertex="1" connectable="0">
          <mxGeometry x="749.9990065649404" y="310.00327647158775" as="geometry" />
        </mxCell>
        <mxCell id="5KhHPp6qHfNSPZu-pBKK-47" value="" style="curved=1;endArrow=classic;html=1;rounded=0;exitX=0.973;exitY=0.677;exitDx=0;exitDy=0;exitPerimeter=0;entryX=1;entryY=0;entryDx=0;entryDy=0;" parent="1" source="5KhHPp6qHfNSPZu-pBKK-41" target="5KhHPp6qHfNSPZu-pBKK-41" edge="1">
          <mxGeometry width="50" height="50" relative="1" as="geometry">
            <mxPoint x="1037.75" y="418.75" as="sourcePoint" />
            <mxPoint x="981.25" y="369" as="targetPoint" />
            <Array as="points">
              <mxPoint x="1040" y="400" />
              <mxPoint x="1040" y="360" />
              <mxPoint x="1020" y="330" />
            </Array>
          </mxGeometry>
        </mxCell>
      </root>
    </mxGraphModel>
  </diagram>
</mxfile>
